<svg width="40" height="41" viewBox="0 0 40 41" fill="none" xmlns="http://www.w3.org/2000/svg">
<path d="M8.33334 40.4875C7.41667 40.4875 6.63167 40.1532 5.97834 39.4847C5.325 38.8162 4.99889 38.0116 5 37.0708V13.1542C5 12.2146 5.32667 11.41 5.98 10.7403C6.63334 10.0706 7.41778 9.73635 8.33334 9.73749H23.2083L19.875 13.1542H8.33334V37.0708H31.6667V25.1979L35 21.7812V37.0708C35 38.0104 34.6733 38.815 34.02 39.4847C33.3667 40.1544 32.5822 40.4886 31.6667 40.4875H8.33334ZM26.9583 10.7198L29.3333 13.1115L18.3333 24.3864V26.8208H20.6667L31.7083 15.5031L34.0833 17.8948L22.0833 30.2375H15V22.9771L26.9583 10.7198ZM34.0833 17.8948L26.9583 10.7198L31.125 6.44895C31.7917 5.76562 32.5906 5.42395 33.5217 5.42395C34.4528 5.42395 35.2372 5.76562 35.875 6.44895L38.2083 8.88333C38.8472 9.53819 39.1667 10.3354 39.1667 11.275C39.1667 12.2146 38.8472 13.0118 38.2083 13.6667L34.0833 17.8948Z" fill="#322F2F"/>
</svg>
